<?xml version="1.0" standalone="no"?>
<!DOCTYPE svg PUBLIC "-//W3C//DTD SVG 20010904//EN"
 "http://www.w3.org/TR/2001/REC-SVG-20010904/DTD/svg10.dtd">
<svg version="1.0" xmlns="http://www.w3.org/2000/svg"
 width="394.000000pt" height="394.000000pt" viewBox="0 0 394.000000 394.000000"
 preserveAspectRatio="xMidYMid meet">
<metadata>
Created by potrace 1.14, written by Peter Selinger 2001-2017
</metadata>
<g transform="translate(0.000000,394.000000) scale(0.100000,-0.100000)"
fill="#000000" stroke="none">
<path d="M0 3256 c0 -25 7 -66 16 -92 15 -45 19 -59 29 -118 3 -16 10 -37 16
-47 5 -11 8 -19 5 -19 -2 0 0 -17 5 -37 16 -65 19 -77 24 -103 10 -54 14 -72
19 -88 3 -9 8 -35 12 -57 3 -22 10 -48 15 -57 5 -10 7 -18 5 -18 -3 0 -1 -12
5 -27 6 -16 12 -35 14 -43 2 -8 17 -60 34 -115 16 -54 27 -103 25 -107 -3 -4
0 -8 5 -8 6 0 10 -3 10 -7 -1 -5 0 -10 1 -13 2 -7 8 -31 12 -50 2 -8 7 -21 11
-27 5 -7 5 -17 2 -23 -3 -5 -1 -10 4 -10 6 0 10 -3 9 -7 0 -5 1 -15 4 -23 3
-8 13 -35 22 -60 12 -34 24 -48 48 -59 18 -8 36 -18 39 -23 3 -5 12 -10 20
-11 18 -3 79 -39 79 -47 0 -4 23 -13 50 -20 28 -7 50 -17 50 -22 0 -4 3 -7 8
-6 4 1 18 -4 32 -12 14 -8 31 -15 38 -16 26 -5 42 -27 42 -60 0 -19 -5 -34
-11 -34 -8 0 -8 -4 0 -14 8 -10 9 -16 1 -21 -6 -3 -8 -10 -5 -14 2 -5 0 -22
-5 -39 -5 -20 -5 -34 1 -38 6 -4 6 -10 -1 -19 -9 -11 -23 -79 -23 -115 0 -8
-4 -21 -10 -27 -6 -9 -6 -13 2 -13 7 0 8 -8 1 -26 -6 -14 -8 -30 -4 -35 3 -5
-1 -9 -8 -9 -9 0 -9 -3 2 -10 12 -8 12 -10 1 -10 -8 0 -11 -3 -8 -7 4 -3 2
-12 -4 -20 -8 -8 -8 -13 -1 -13 11 0 11 -18 -1 -37 -5 -7 -5 -18 -2 -23 3 -5
3 -10 -2 -10 -4 0 -8 -17 -7 -38 0 -20 -2 -41 -5 -47 -3 -5 -6 -16 -8 -24 -1
-8 -4 -26 -8 -39 -4 -15 -2 -21 5 -17 5 3 10 1 10 -4 0 -6 -5 -11 -12 -11 -6
0 -8 -3 -5 -7 4 -3 2 -12 -4 -20 -9 -10 -8 -13 1 -13 10 0 10 -3 0 -15 -7 -8
-10 -26 -8 -40 3 -14 2 -25 -3 -25 -4 0 -6 -9 -4 -20 2 -11 0 -20 -5 -20 -6 0
-6 -10 0 -26 7 -19 7 -23 -2 -18 -8 5 -9 2 -5 -9 4 -10 1 -17 -6 -17 -8 0 -6
-4 3 -10 13 -9 13 -10 0 -10 -13 0 -13 -1 0 -10 13 -9 13 -10 0 -10 -13 0 -13
-1 0 -10 8 -5 11 -10 5 -10 -23 -1 42 -29 68 -30 16 0 26 -4 23 -8 -2 -4 10
-9 27 -10 17 -2 36 -7 41 -12 4 -4 14 -6 21 -4 7 3 16 1 19 -5 4 -6 13 -8 21
-4 8 3 15 -1 15 -8 0 -7 3 -10 6 -6 4 3 27 -5 51 -19 24 -13 41 -19 37 -12 -5
7 4 5 19 -5 15 -9 27 -14 27 -10 0 5 22 6 50 5 27 -2 47 -8 44 -13 -3 -5 6 -5
20 1 14 5 26 6 26 2 0 -5 14 -7 30 -6 17 1 30 -3 30 -9 0 -7 5 -5 10 3 9 13
10 13 10 0 0 -13 1 -13 10 0 6 9 10 11 10 3 0 -7 7 -10 17 -6 12 5 14 3 8 -8
-8 -12 -6 -12 8 0 13 10 17 10 17 1 0 -10 3 -10 15 0 8 7 15 8 15 3 0 -5 17
-11 38 -12 20 -1 43 -3 50 -3 6 -1 12 -6 12 -12 0 -6 5 -4 10 4 7 11 10 11 10
2 0 -7 4 -11 9 -8 5 3 21 -4 37 -16 16 -13 25 -16 20 -8 -4 9 -2 8 6 -2 8 -9
21 -18 28 -20 8 -2 23 -11 34 -21 11 -9 28 -17 38 -17 10 0 18 -5 18 -11 0 -6
7 -9 14 -6 10 4 13 1 9 -9 -3 -8 -12 -13 -19 -10 -8 3 -14 1 -14 -5 0 -6 -7
-9 -15 -5 -8 3 -15 1 -15 -4 0 -6 -9 -10 -19 -10 -11 0 -23 -5 -26 -11 -4 -6
-13 -8 -21 -5 -8 3 -14 1 -14 -5 0 -6 -4 -7 -10 -4 -5 3 -10 2 -10 -4 0 -6 -7
-8 -15 -5 -8 4 -15 1 -15 -7 0 -7 -3 -9 -7 -6 -3 4 -13 1 -21 -6 -13 -10 -15
-9 -8 3 4 8 0 6 -9 -5 -9 -11 -18 -19 -20 -17 -10 5 -28 2 -22 -5 4 -3 -1 -11
-10 -18 -16 -12 -28 -89 -12 -79 5 3 9 0 9 -6 0 -11 48 -35 64 -31 4 1 14 -3
22 -10 7 -6 19 -7 25 -3 8 4 9 3 5 -4 -7 -12 1 -13 77 -16 15 0 27 -5 27 -10
0 -5 3 -6 7 -3 3 4 12 2 20 -4 7 -7 13 -7 13 -2 0 12 48 4 56 -9 3 -5 12 -4
20 3 11 9 14 9 14 0 0 -8 5 -9 16 -3 11 6 26 5 43 -4 14 -8 27 -10 29 -6 1 4
34 5 72 2 44 -3 70 -1 70 5 0 5 5 3 10 -5 6 -9 10 -10 10 -3 0 8 9 9 30 3 16
-5 30 -6 30 -2 0 4 36 5 80 2 44 -3 80 -2 80 1 0 3 23 3 50 -1 28 -4 50 -3 50
1 0 4 8 6 18 4 9 -1 23 2 30 8 8 6 12 6 12 -3 0 -8 4 -9 13 -3 6 5 27 8 45 8
17 -1 32 4 32 9 0 7 3 8 8 1 9 -13 42 -15 42 -3 0 6 7 8 15 4 8 -3 15 0 15 7
0 8 3 8 9 -2 7 -11 9 -11 14 0 4 9 6 10 6 2 1 -9 10 -9 40 2 22 7 42 11 45 8
3 -3 13 0 23 8 15 12 16 12 8 -1 -7 -12 -6 -13 6 -3 8 6 28 14 44 17 17 2 31
5 33 6 1 2 6 3 11 4 5 0 13 4 17 9 12 12 26 8 18 -5 -4 -7 1 -6 12 3 10 9 34
21 52 29 17 7 32 16 32 21 0 5 7 9 16 9 8 0 13 4 9 9 -3 5 -1 12 3 15 5 3 7
16 5 29 -4 20 0 26 21 31 14 3 26 11 26 17 0 6 4 8 9 4 5 -3 12 -1 16 5 4 6
11 8 16 5 5 -4 12 0 15 9 3 8 12 12 20 9 8 -3 14 1 14 8 0 7 3 9 6 6 4 -4 20
3 37 15 19 13 28 16 23 7 -4 -7 -1 -6 7 3 8 10 17 15 20 11 4 -3 7 -1 7 5 0 7
7 12 16 12 9 0 23 8 31 17 9 11 11 12 7 3 -5 -10 0 -9 14 4 17 14 22 16 22 5
0 -11 2 -11 10 1 9 13 10 13 10 0 0 -12 2 -13 9 -1 6 8 20 12 39 9 17 -2 29
-1 26 3 -3 5 8 8 23 8 36 0 114 10 133 18 24 10 50 10 56 1 3 -4 14 -4 24 2
13 7 21 7 25 0 4 -7 13 -7 26 0 14 8 19 7 19 -2 0 -9 3 -9 12 0 9 9 15 9 27
-1 12 -9 13 -9 7 1 -5 8 -1 11 16 8 13 -2 28 1 35 6 7 5 14 5 18 -2 7 -11 35
11 35 29 0 5 5 22 12 38 16 40 20 54 22 86 2 16 9 33 17 38 11 7 11 9 1 9 -10
0 -10 3 1 15 9 8 13 24 10 36 -5 17 -3 20 7 14 10 -6 12 -4 7 9 -4 10 -4 23 0
29 4 7 8 17 9 22 5 29 10 41 19 48 6 4 4 11 -5 17 -9 6 -10 10 -3 10 6 0 12 9
12 20 1 11 1 29 2 40 0 11 4 18 8 16 5 -3 6 6 3 19 -2 14 0 25 5 25 5 0 9 10
8 22 -1 13 3 26 9 30 8 5 7 8 -2 8 -10 0 -10 5 -2 21 7 11 9 27 6 35 -3 8 0
14 7 14 9 0 8 3 -1 9 -8 4 -13 11 -13 15 1 14 27 34 36 28 6 -3 4 2 -4 11 -7
9 -10 17 -5 17 5 0 2 5 -6 10 -13 9 -13 11 0 20 8 5 11 10 6 10 -5 0 -3 6 3
14 9 11 9 15 -1 19 -10 4 -10 7 1 15 11 8 11 10 0 15 -8 3 -9 6 -3 6 13 1 6
61 -8 61 -5 0 -2 7 6 16 9 8 13 20 10 26 -4 6 0 14 7 19 11 7 11 9 1 9 -10 0
-10 5 -2 20 8 15 8 20 -1 20 -8 0 -8 4 -1 13 7 8 7 18 2 27 -5 9 -5 19 2 27 7
9 7 13 -2 13 -10 0 -10 3 -1 14 7 9 8 17 2 20 -10 7 -9 31 2 42 4 4 2 13 -4
21 -8 9 -8 17 -1 26 7 8 7 18 2 27 -6 9 -4 20 3 29 9 12 9 13 0 8 -9 -6 -11 2
-9 28 1 19 -1 35 -6 35 -4 0 -8 5 -8 11 0 5 5 7 11 3 8 -4 8 -1 2 12 -5 11 -8
36 -8 56 0 21 -4 38 -9 38 -5 0 -6 3 -3 6 3 4 2 15 -4 25 -7 14 -6 19 3 19 6
0 4 6 -7 13 -14 11 -15 16 -5 22 9 6 11 4 5 -5 -5 -9 -4 -11 3 -6 13 8 1 39
-18 51 -6 4 -8 11 -5 16 4 5 -2 9 -12 9 -10 0 -24 9 -31 20 -7 11 -18 17 -27
14 -8 -4 -15 -1 -15 5 0 6 -6 11 -14 11 -8 0 -21 8 -28 18 -7 9 -19 18 -27 20
-7 1 -20 10 -28 18 -9 8 -21 13 -27 11 -13 -5 -38 18 -29 27 5 5 -10 8 -33 5
-3 0 -14 11 -25 25 -13 17 -26 23 -41 19 -16 -3 -19 -2 -10 4 9 7 2 13 -23 23
-19 7 -32 17 -29 22 3 4 -3 8 -12 8 -10 0 -15 3 -11 6 3 4 -1 13 -9 21 -8 8
-12 19 -9 24 4 5 1 9 -4 9 -6 0 -10 3 -10 8 3 20 -3 30 -23 36 -16 4 -19 9
-11 14 7 4 11 14 9 22 -7 38 -20 76 -28 87 -5 6 -11 24 -14 40 -3 15 -9 29
-14 31 -5 2 -6 10 -3 19 4 11 3 14 -6 9 -8 -5 -12 -3 -10 5 4 32 -2 60 -11 54
-9 -6 -13 11 -13 58 0 9 -7 17 -15 17 -8 0 -13 2 -10 5 3 3 -1 22 -9 43 -7 20
-16 45 -20 55 -3 9 -10 17 -17 17 -7 0 -7 3 2 8 9 6 2 19 -26 48 -37 38 -48
44 -84 47 -10 1 -18 5 -18 9 0 4 -12 8 -26 8 -14 0 -32 6 -40 14 -7 8 -23 12
-34 9 -12 -3 -20 0 -20 7 0 7 -8 10 -20 7 -11 -3 -20 -1 -20 4 0 4 -7 6 -15 3
-8 -4 -15 -2 -15 4 0 6 -10 8 -22 4 -13 -3 -19 -1 -15 6 5 6 -2 9 -18 7 -14
-1 -25 2 -25 7 0 5 -4 7 -9 3 -5 -3 -12 -2 -15 3 -2 4 -17 8 -33 7 -15 0 -31
3 -34 8 -4 5 -15 4 -26 -1 -15 -8 -24 -8 -33 1 -8 8 -11 8 -7 1 4 -7 -2 -14
-13 -17 -11 -3 -20 0 -20 6 0 8 -3 8 -8 2 -8 -11 -27 -18 -54 -19 -10 0 -18
-3 -18 -6 0 -3 -15 -5 -32 -6 -18 -1 -51 -5 -73 -9 -22 -4 -47 -8 -55 -8 -8 0
-21 -5 -29 -11 -12 -9 -13 -8 -6 4 7 12 6 13 -6 4 -8 -6 -24 -10 -36 -9 -13 1
-23 -2 -23 -6 0 -4 -8 -6 -17 -5 -10 2 -21 -2 -25 -8 -6 -8 -10 -7 -17 2 -7
11 -11 11 -23 -1 -10 -10 -20 -12 -30 -6 -11 6 -21 4 -32 -7 -10 -10 -16 -11
-16 -3 0 7 -4 8 -12 2 -7 -5 -26 -10 -43 -12 -16 -2 -38 -7 -47 -12 -12 -6
-18 -6 -18 1 0 14 -22 8 -38 -10 -8 -8 -11 -9 -7 -2 3 6 1 12 -4 12 -6 0 -11
-5 -11 -10 0 -7 -7 -7 -21 1 -15 8 -19 8 -15 0 4 -7 -2 -11 -16 -11 -48 0 -68
-5 -68 -15 0 -5 -5 -3 -10 5 -7 12 -10 12 -10 1 0 -7 -6 -11 -14 -8 -7 3 -19
0 -25 -6 -9 -9 -14 -8 -21 3 -5 8 -10 10 -10 5 0 -6 -12 -12 -26 -13 -15 -1
-34 -8 -42 -15 -13 -10 -14 -9 -7 3 7 12 4 12 -17 -2 -19 -13 -28 -14 -37 -5
-9 9 -14 8 -21 -3 -5 -8 -10 -11 -10 -6 0 5 -7 3 -15 -4 -11 -9 -15 -9 -15 -1
0 7 -4 9 -10 6 -10 -6 -62 -16 -97 -18 -13 0 -23 -4 -23 -9 0 -4 -7 -5 -15 -2
-9 4 -15 1 -15 -7 0 -10 -3 -10 -12 -1 -7 7 -17 8 -30 1 -10 -5 -18 -7 -18 -3
0 3 -7 1 -15 -6 -12 -10 -15 -10 -15 0 0 9 -3 10 -13 1 -8 -6 -17 -8 -20 -4
-4 3 -7 0 -7 -8 0 -11 -2 -11 -10 1 -6 10 -10 11 -10 3 0 -7 -5 -13 -11 -13
-5 0 -7 6 -3 13 6 9 4 9 -8 -1 -9 -7 -22 -12 -30 -11 -24 3 -39 -1 -34 -9 3
-5 -1 -9 -9 -9 -8 0 -12 4 -9 9 3 4 -7 3 -21 -2 -15 -6 -30 -8 -35 -5 -5 3
-11 1 -14 -3 -3 -5 -17 -8 -31 -7 -14 2 -25 -1 -25 -6 0 -4 -6 -6 -14 -3 -8 3
-24 1 -35 -6 -16 -8 -21 -8 -21 2 0 10 -2 10 -9 0 -4 -8 -12 -13 -17 -12 -26
4 -44 -10 -44 -35 0 -14 -4 -24 -9 -21 -10 6 -9 -12 0 -29 3 -5 3 -19 0 -31
-6 -19 -8 -20 -38 -7 -18 7 -33 17 -33 22 0 6 -9 8 -20 6 -11 -2 -20 0 -20 5
0 8 -53 41 -72 46 -5 1 -10 3 -13 4 -3 1 -9 3 -15 4 -5 0 -21 13 -35 29 -14
15 -30 27 -36 27 -5 0 -33 15 -62 34 -28 18 -73 47 -99 63 -26 17 -44 34 -40
38 4 5 1 5 -6 1 -7 -5 -33 5 -62 24 -26 17 -61 33 -77 36 -15 3 -63 27 -106
54 -42 28 -88 52 -102 56 -24 6 -25 4 -25 -40z"/>
</g>
</svg>
